<?xml version="1.0" encoding="utf-8"?>
<!-- Generator: Adobe Illustrator 23.0.2, SVG Export Plug-In . SVG Version: 6.00 Build 0)  -->
<svg version="1.1" id="Layer_1" xmlns="http://www.w3.org/2000/svg" xmlns:xlink="http://www.w3.org/1999/xlink" x="0px" y="0px"
	 viewBox="0 0 12 12" style="enable-background:new 0 0 12 12;" xml:space="preserve">
<style type="text/css">
	.st0{fill-rule:evenodd;clip-rule:evenodd;fill:#E0E7E9;}
</style>
<path class="st0" d="M2.1,5.4C2,5.2,1.8,5.2,1.6,5.4c0,0,0,0,0,0L0.1,6.9C0,7,0,7.2,0.1,7.4s0.4,0.1,0.5,0l1.2-1.2l1.2,1.2
	c0.1,0.1,0.4,0.1,0.5,0s0.1-0.4,0-0.5L2.1,5.4z M11.9,4.6c-0.1-0.1-0.4-0.1-0.5,0c0,0,0,0,0,0l-1.2,1.2L8.9,4.6
	c-0.1-0.1-0.4-0.1-0.5,0S8.2,5,8.4,5.1l1.5,1.5c0.1,0.1,0.4,0.1,0.5,0c0,0,0,0,0,0l1.5-1.5C12,5,12,4.8,11.9,4.6
	C11.9,4.6,11.9,4.6,11.9,4.6z"/>
<path class="st0" d="M6,2.3C4.7,2.2,3.5,2.9,2.9,4C2.7,4.1,2.5,4.2,2.3,4C2.2,3.9,2.1,3.7,2.2,3.5c1.4-2.1,4.1-2.7,6.2-1.3
	c1.3,0.8,2,2.2,2,3.8c0,0.2-0.2,0.4-0.4,0.4C9.9,6.4,9.7,6.2,9.7,6C9.7,3.9,8.1,2.3,6,2.3L6,2.3z M1.9,5.6c0.2,0,0.4,0.2,0.4,0.4
	c0,2.1,1.7,3.8,3.7,3.8c1.3,0,2.5-0.6,3.1-1.7c0.1-0.2,0.3-0.2,0.5-0.1C9.8,8,9.9,8.3,9.8,8.4c0,0,0,0,0,0c-1.4,2.1-4.1,2.7-6.2,1.3
	c-1.3-0.8-2-2.2-2-3.8C1.5,5.8,1.7,5.6,1.9,5.6C1.9,5.6,1.9,5.6,1.9,5.6L1.9,5.6z"/>
</svg>
