<?xml version="1.0" encoding="utf-8"?>
<!-- Generator: Adobe Illustrator 23.0.2, SVG Export Plug-In . SVG Version: 6.00 Build 0)  -->
<svg version="1.1" id="Layer_1" xmlns="http://www.w3.org/2000/svg" xmlns:xlink="http://www.w3.org/1999/xlink" x="0px" y="0px"
	 viewBox="0 0 12 12" style="enable-background:new 0 0 12 12;" xml:space="preserve">
<style type="text/css">
	.st0{fill:#E0E7E9;}
	.st1{fill-rule:evenodd;clip-rule:evenodd;fill:#E0E7E9;}
</style>
<path class="st0" d="M9,9.8c0,0.8-0.8,1.5-1.9,1.5s-1.9-0.7-1.9-1.5s0.8-1.5,1.9-1.5S9,8.9,9,9.8z"/>
<path class="st1" d="M9,2.3v7.5H8.3V2.3H9z"/>
<path class="st0" d="M8.3,2.1c0-0.4,0.3-0.7,0.6-0.7l2.3-0.4c0.4-0.1,0.8,0.2,0.9,0.6c0,0,0,0.1,0,0.1V3L8.3,3.8V2.1z"/>
<path class="st1" d="M0,8.6c0-0.2,0.2-0.4,0.4-0.4H3c0.2,0,0.4,0.2,0.4,0.4S3.2,9,3,9H0.4C0.2,9,0,8.8,0,8.6z M0,5.6
	c0-0.2,0.2-0.4,0.4-0.4H6c0.2,0,0.4,0.2,0.4,0.4S6.2,6,6,6H0.4C0.2,6,0,5.8,0,5.6z M0,2.6c0-0.2,0.2-0.4,0.4-0.4H6
	c0.2,0,0.4,0.2,0.4,0.4S6.2,3,6,3H0.4C0.2,3,0,2.8,0,2.6z"/>
</svg>
