<?xml version="1.0" encoding="utf-8"?>
<!-- Generator: Adobe Illustrator 23.0.2, SVG Export Plug-In . SVG Version: 6.00 Build 0)  -->
<svg version="1.1" id="Layer_1" xmlns="http://www.w3.org/2000/svg" xmlns:xlink="http://www.w3.org/1999/xlink" x="0px" y="0px"
	 viewBox="0 0 12 12" style="enable-background:new 0 0 12 12;" xml:space="preserve">
<style type="text/css">
	.st0{fill-rule:evenodd;clip-rule:evenodd;fill:#E0E7E9;}
</style>
<path class="st0" d="M9.5,0.9c0.1-0.1,0.4-0.1,0.5,0c0,0,0,0,0,0l1.9,1.9c0.1,0.1,0.1,0.4,0,0.5c0,0,0,0,0,0L10,5.1
	c-0.1,0.1-0.4,0.1-0.5,0s-0.1-0.4,0-0.5L11.1,3L9.5,1.4C9.3,1.2,9.3,1,9.5,0.9C9.5,0.9,9.5,0.9,9.5,0.9z M9.5,6.9
	c0.1-0.1,0.4-0.1,0.5,0c0,0,0,0,0,0l1.9,1.9c0.1,0.1,0.1,0.4,0,0.5c0,0,0,0,0,0L10,11.1c-0.1,0.1-0.4,0.1-0.5,0s-0.1-0.4,0-0.5
	L11.1,9L9.5,7.4C9.3,7.2,9.3,7,9.5,6.9C9.5,6.9,9.5,6.9,9.5,6.9z"/>
<path class="st0" d="M0,3c0-0.2,0.2-0.4,0.4-0.4h1.5c2.3,0,3.4,1.7,4.4,3.2l0.1,0.1c0.5,0.7,0.9,1.4,1.4,1.9c0.5,0.5,1.2,0.8,2,0.8
	h1.5c0.2,0,0.4,0.2,0.4,0.4s-0.2,0.4-0.4,0.4H9.8c-1.1,0-1.8-0.4-2.5-1C6.7,7.8,6.2,7,5.7,6.3L5.6,6.2c-1-1.5-1.9-2.8-3.8-2.8H0.4
	C0.2,3.4,0,3.2,0,3z"/>
<path class="st0" d="M0,9c0,0.2,0.2,0.4,0.4,0.4h1.5c2.3,0,3.4-1.7,4.4-3.2l0.1-0.1c0.5-0.7,0.9-1.4,1.4-1.9c0.5-0.5,1.2-0.8,2-0.8
	h1.5c0.2,0,0.4-0.2,0.4-0.4c0-0.2-0.2-0.4-0.4-0.4H9.8c-1.1,0-1.8,0.4-2.5,1C6.7,4.2,6.2,5,5.7,5.7L5.6,5.8c-1,1.5-1.9,2.8-3.8,2.8
	H0.4C0.2,8.6,0,8.8,0,9z"/>
</svg>
