<?xml version="1.0" encoding="utf-8"?>
<!-- Generator: Adobe Illustrator 23.0.2, SVG Export Plug-In . SVG Version: 6.00 Build 0)  -->
<svg version="1.1" id="Layer_1" xmlns="http://www.w3.org/2000/svg" xmlns:xlink="http://www.w3.org/1999/xlink" x="0px" y="0px"
	 viewBox="0 0 12 12" style="enable-background:new 0 0 12 12;" xml:space="preserve">
<style type="text/css">
	.st0{fill:#E0E7E9;}
	.st1{fill-rule:evenodd;clip-rule:evenodd;fill:#E0E7E9;}
</style>
<path class="st0" d="M8.7,10.5c1.2-1.2,1.9-2.8,1.9-4.5c0-1.7-0.7-3.3-1.9-4.5L8.1,2c1.1,1.1,1.6,2.5,1.6,4c0,1.6-0.6,3-1.6,4
	C8.1,10,8.7,10.5,8.7,10.5z"/>
<path class="st0" d="M7.6,9.4C8.5,8.5,9,7.3,9,6c0-1.3-0.5-2.5-1.4-3.4L7.1,3.1C7.8,3.9,8.3,4.9,8.3,6c0,1.1-0.4,2.1-1.2,2.9
	C7.1,8.9,7.6,9.4,7.6,9.4z"/>
<path class="st0" d="M6.5,8.4c0.6-0.6,1-1.5,1-2.4c0-0.9-0.4-1.8-1-2.4L6,4.1C6.5,4.6,6.8,5.3,6.8,6c0,0.7-0.3,1.4-0.8,1.9L6.5,8.4z
	"/>
<path class="st1" d="M5,2.7C5.2,2.7,5.2,2.9,5.3,3v6c0,0.2-0.2,0.4-0.4,0.4c-0.1,0-0.2,0-0.2-0.1L2.9,7.9H1.1
	c-0.2,0-0.4-0.2-0.4-0.4v-3c0-0.2,0.2-0.4,0.4-0.4h1.7l1.8-1.4C4.8,2.6,4.9,2.6,5,2.7z"/>
</svg>
