<?xml version="1.0" encoding="utf-8"?>
<!-- Generator: Adobe Illustrator 23.0.2, SVG Export Plug-In . SVG Version: 6.00 Build 0)  -->
<svg version="1.1" id="Layer_1" xmlns="http://www.w3.org/2000/svg" xmlns:xlink="http://www.w3.org/1999/xlink" x="0px" y="0px"
	 viewBox="0 0 12 12" style="enable-background:new 0 0 12 12;" xml:space="preserve">
<style type="text/css">
	.st0{fill-rule:evenodd;clip-rule:evenodd;fill:#E0E7E9;}
</style>
<path class="st0" d="M5,2.7C5.2,2.7,5.2,2.9,5.3,3v6c0,0.2-0.2,0.4-0.4,0.4c-0.1,0-0.2,0-0.2-0.1L2.9,7.9H1.1
	c-0.2,0-0.4-0.2-0.4-0.4v-3c0-0.2,0.2-0.4,0.4-0.4h1.7l1.8-1.4C4.8,2.6,4.9,2.6,5,2.7z M10.4,4.2c0.1,0.1,0.1,0.4,0,0.5c0,0,0,0,0,0
	l-3,3C7.2,7.9,7,7.9,6.9,7.8s-0.1-0.4,0-0.5l3-3C10,4.1,10.2,4.1,10.4,4.2C10.4,4.2,10.4,4.2,10.4,4.2z"/>
<path class="st0" d="M6.9,4.2c-0.1,0.1-0.1,0.4,0,0.5c0,0,0,0,0,0l3,3c0.1,0.1,0.4,0.1,0.5,0s0.1-0.4,0-0.5l-3-3
	C7.2,4.1,7,4.1,6.9,4.2C6.9,4.2,6.9,4.2,6.9,4.2z"/>
</svg>
