<?xml version="1.0" encoding="utf-8"?>
<!-- Generator: Adobe Illustrator 23.0.2, SVG Export Plug-In . SVG Version: 6.00 Build 0)  -->
<svg version="1.1" id="Layer_1" xmlns="http://www.w3.org/2000/svg" xmlns:xlink="http://www.w3.org/1999/xlink" x="0px" y="0px"
	 viewBox="0 0 12 12" style="enable-background:new 0 0 12 12;" xml:space="preserve">
<style type="text/css">
	.st0{fill-rule:evenodd;clip-rule:evenodd;fill:#222222;}
</style>
<path class="st0" d="M8.9,3.1C9,3.3,9,3.5,8.9,3.6c0,0,0,0,0,0L3.6,8.9C3.5,9,3.3,9,3.1,8.9S3,8.5,3.1,8.4l5.3-5.3
	C8.5,3,8.7,3,8.9,3.1C8.9,3.1,8.9,3.1,8.9,3.1z"/>
<path class="st0" d="M3.1,3.1C3,3.3,3,3.5,3.1,3.6c0,0,0,0,0,0l5.3,5.3C8.5,9,8.7,9,8.9,8.9s0.1-0.4,0-0.5L3.6,3.1
	C3.5,3,3.3,3,3.1,3.1C3.1,3.1,3.1,3.1,3.1,3.1z"/>
</svg>
